<svg width="18" height="18" viewBox="0 0 120 120" fill="none" xmlns="http://www.w3.org/2000/svg">
<g clip-path="url(#clip0_2127_17)">
<path d="M60 0C26.865 0 0 26.8613 0 60C0 93.1387 26.8613 120 60 120C93.1387 120 120 93.1387 120 60C120 26.8613 93.1387 0 60 0ZM60 112.62C31.05 112.62 7.5 88.95 7.5 60C7.5 31.05 31.05 7.5 60 7.5C88.95 7.5 112.5 31.05 112.5 60C112.5 88.95 88.95 112.62 60 112.62ZM86.25 56.25H63.75V33.75C63.75 31.68 62.07 30 60 30C57.93 30 56.25 31.68 56.25 33.75V56.25H33.75C31.68 56.25 30 57.93 30 60C30 62.07 31.68 63.75 33.75 63.75H56.25V86.25C56.25 88.32 57.93 90 60 90C62.07 90 63.75 88.32 63.75 86.25V63.75H86.25C88.32 63.75 90 62.07 90 60C90 57.93 88.32 56.25 86.25 56.25Z" fill="#0D6EFD"/>
</g>
<defs>
<clipPath id="clip0_2127_17">
<rect width="120" height="120" fill="white"/>
</clipPath>
</defs>
</svg>
