<svg width="32" height="32" viewBox="0 0 120 120" fill="none" xmlns="http://www.w3.org/2000/svg">
<circle cx="60" cy="60" r="60" fill="#0D6EFD"/>
<path d="M93.9832 28.7392C93.9832 28.7392 93.9832 28.7392 93.9832 28.5874C93.8751 28.4799 93.7525 28.3879 93.6189 28.3142C92.8306 27.5495 91.8495 27.0129 90.7803 26.7616C89.7111 26.5103 88.5938 26.5538 87.5473 26.8874L19.4846 50.3845C18.5751 50.6996 17.7535 51.2264 17.0876 51.9214C16.4218 52.6165 15.9307 53.4599 15.6549 54.3821C15.3791 55.3043 15.3266 56.2789 15.5016 57.2254C15.6765 58.1719 16.074 59.0632 16.6613 59.8259L50.5408 104.24C51.1096 104.978 51.8409 105.576 52.6779 105.987C53.515 106.398 54.4354 106.61 55.3678 106.608H55.9142C56.9523 106.508 57.9474 106.143 58.8034 105.548C59.6595 104.952 60.3478 104.146 60.8019 103.208L94.7725 35.3269C95.2943 34.2707 95.4974 33.0854 95.3573 31.9157C95.2171 30.746 94.7397 29.6423 93.9832 28.7392ZM81.2632 35.418L35.544 74.6102L21.4275 56.1222L81.2632 35.418ZM55.3678 100.536L39.2477 79.4372L85.9383 39.4556L55.3678 100.536Z" fill="white"/>
</svg>
