<svg width="32" height="32" viewBox="0 0 120 120" fill="none" xmlns="http://www.w3.org/2000/svg">
<circle cx="60" cy="60" r="60" fill="#0D6EFD"/>
<path d="M85.9371 35.604C85.9371 35.604 85.9371 35.604 85.9371 35.4901C85.856 35.4095 85.7641 35.3405 85.6639 35.2852C85.0726 34.7117 84.3369 34.3092 83.5349 34.1208C82.733 33.9323 81.895 33.9649 81.1102 34.2151L30.0631 51.8379C29.381 52.0742 28.7648 52.4693 28.2654 52.9906C27.766 53.5119 27.3977 54.1445 27.1909 54.8361C26.9841 55.5278 26.9446 56.2587 27.0759 56.9686C27.2071 57.6785 27.5052 58.347 27.9457 58.919L53.3553 92.2293C53.7819 92.7834 54.3303 93.2319 54.9582 93.5398C55.586 93.8478 56.2763 94.0071 56.9755 94.0053H57.3854C58.164 93.9308 58.9102 93.657 59.5523 93.2104C60.1943 92.7638 60.7105 92.1593 61.0511 91.4552L86.5291 40.5448C86.9204 39.7526 87.0728 38.8636 86.9677 37.9864C86.8625 37.1091 86.5045 36.2813 85.9371 35.604ZM76.3971 40.6131L42.1077 70.0072L31.5203 56.1412L76.3971 40.6131ZM56.9755 89.4516L44.8854 73.6274L79.9034 43.6413L56.9755 89.4516Z" fill="white"/>
</svg>
